<svg width="970" height="285" viewBox="0 0 970 285" fill="none" xmlns="http://www.w3.org/2000/svg">
<g clip-path="url(#clip0_12_192)">
<path d="M634 286C424.167 286 214.833 285.988 5.50009 286.094C1.75082 286.095 0.900132 285.25 0.905071 281.5C1.02645 189.333 1.02444 97.1667 0.904319 5.00014C0.899856 1.57595 1.57663 0.904928 5.00008 0.906007C325.667 1.00708 646.333 1.00708 967 0.906007C970.423 0.904928 971.1 1.57596 971.096 5.00014C970.976 97.3333 970.976 189.667 971.096 282C971.1 285.424 970.424 286.099 967 286.095C856.167 285.98 745.333 286 634 286Z" fill="#FEFEFE"/>
<path d="M386.007 157.777C390.727 162.337 390.829 167.55 388.833 172.808C386.919 177.852 382.326 178.429 377.617 178.428C332.624 178.418 287.63 178.446 242.636 178.402C233.646 178.394 230.33 175.066 230.309 165.938C230.24 136.275 230.236 106.613 230.312 76.9502C230.336 67.9103 233.654 64.6181 242.78 64.6061C287.773 64.5466 332.767 64.5408 377.761 64.6159C386.769 64.631 390.712 69.1026 389.895 77.7258C389.336 83.6238 386.255 86.7507 380.344 87.302C378.691 87.4563 377.016 87.4178 375.351 87.418C336.19 87.4236 297.028 87.4801 257.868 87.3326C253.977 87.318 252.62 88.2516 252.947 92.24C253.314 96.7093 253.266 101.248 252.956 105.726C252.716 109.183 253.681 110.19 257.269 110.159C278.598 109.975 299.929 110.068 321.259 110.068C332.424 110.068 343.59 110.007 354.754 110.088C364.554 110.158 369.04 115.957 366.84 125.5C365.699 130.446 362.172 132.994 355.971 133.011C336.64 133.064 317.31 133.031 297.979 133.031C284.481 133.032 270.979 133.205 257.487 132.923C253.569 132.842 252.693 134.063 252.957 137.664C253.272 141.973 253.31 146.347 252.951 150.649C252.612 154.709 253.753 155.944 258.034 155.924C297.359 155.745 336.686 155.821 376.013 155.826C379.335 155.827 382.711 155.562 386.007 157.777Z" fill="#231F1F"/>
<path d="M553.16 170.229C544.075 176.748 533.986 178.386 523.515 178.402C489.376 178.453 455.235 178.456 421.096 178.399C412.434 178.385 409.04 174.946 409.023 166.2C408.965 136.39 408.968 106.58 409.022 76.77C409.037 68.358 412.573 64.8679 420.834 64.8713C455.307 64.8858 489.78 64.9432 524.252 64.9591C530.12 64.9618 535.883 65.7431 541.476 67.4327C558.06 72.4422 566.193 84.6362 567.532 100.995C568.778 116.216 569.286 131.624 566.86 146.83C565.378 156.115 561.14 164.15 553.16 170.229Z" fill="#231F1F"/>
<path d="M588.618 157.253C585.323 149.624 583.877 141.973 584.027 134.069C584.261 121.765 583.047 109.407 585.102 97.1674C588.172 78.8875 599.855 66.788 619.731 65.5656C648.79 63.7784 678.053 63.5995 707.081 65.8112C729.096 67.4885 739.971 78.9793 742.398 100.942C744.073 116.102 744.343 131.583 741.849 146.764C738.806 165.275 725.263 176.835 705.765 178.004C685.637 179.212 665.474 178.352 645.328 178.467C635.191 178.525 625 179.162 614.958 177.066C603.238 174.618 594.068 168.716 588.618 157.253Z" fill="#ED1E24"/>
<path d="M808.143 122.056C842.768 133.368 877.022 144.586 911.281 155.788C920.324 158.745 922.777 162.283 920.45 169.151C917.682 177.323 912.211 179.456 903.455 176.367C864.596 162.656 825.691 149.076 786.799 135.462C786.351 135.305 785.842 135.319 784.726 135.166C784.726 145.586 784.818 155.852 784.699 166.115C784.594 175.126 780.904 178.524 772.031 178.157C765.371 177.881 762.043 174.562 761.967 167.721C761.857 157.891 761.938 148.06 761.938 138.229C761.938 117.735 761.911 97.2405 761.951 76.7462C761.969 67.1644 766.97 63.1339 776.392 64.957C782.047 66.0511 784.801 69.6527 784.913 76.656C785.056 85.6508 785.114 94.6517 784.934 103.644C784.866 107.054 785.716 107.502 788.85 106.393C827.226 92.8154 865.655 79.39 904.039 65.8358C913.045 62.6553 921.933 69.4263 921.005 78.9889C920.574 83.436 917.285 84.9258 913.681 86.1033C896.312 91.7777 878.941 97.4497 861.574 103.132C843.886 108.919 826.201 114.715 808.522 120.527C808.073 120.675 807.705 121.064 807.299 121.341C807.457 121.546 807.615 121.752 808.143 122.056Z" fill="#ED1E24"/>
<path d="M88.9998 178.419C80.0016 178.416 71.5009 178.541 63.0059 178.375C55.0681 178.219 51.8429 174.926 51.8262 166.942C51.763 136.615 51.7628 106.288 51.8269 75.961C51.8436 68.0797 55.518 64.5318 63.1011 64.5953C70.6001 64.6581 74.2666 68.2809 74.2899 76.1385C74.3635 100.966 74.4094 125.795 74.2263 150.622C74.1963 154.683 75.1307 155.946 79.4011 155.923C114.225 155.739 149.051 155.764 183.875 155.901C187.684 155.916 189.396 155.163 188.801 151.005C188.404 148.23 188.505 145.34 188.721 142.528C189.236 135.846 192.985 132.721 200.086 132.79C207.063 132.857 210.901 136.218 211.057 142.912C211.251 151.238 211.237 159.574 211.087 167.902C210.965 174.705 207.759 178.09 200.973 178.299C192.483 178.561 183.979 178.414 175.482 178.416C146.821 178.423 118.16 178.419 88.9998 178.419Z" fill="#221E1E"/>
<path d="M183.059 227.139C182.14 229.082 181.749 230.826 179.218 230.785C176.728 230.746 176.266 229.109 175.534 227.443C172.739 221.09 169.927 214.745 166.108 208.493C166.108 214.629 166.166 220.766 166.068 226.9C166.043 228.45 167.071 230.752 163.829 230.753C160.831 230.753 161.31 228.76 161.304 226.997C161.28 219.845 161.248 212.693 161.333 205.542C161.35 204.097 160.414 201.693 163.075 201.729C165.439 201.762 168.444 200.172 169.914 203.833C172.2 209.523 174.687 215.133 177.114 220.766C177.762 222.27 178.504 223.734 179.543 225.935C182.882 218.488 186.151 211.803 188.858 204.899C190.156 201.59 192.286 201.382 195.068 201.614C198.617 201.91 196.937 204.648 196.981 206.207C197.181 213.187 197.114 220.176 197.029 227.161C197.012 228.567 197.937 230.634 195.041 230.743C192.309 230.846 192.185 229.311 192.206 227.265C192.27 221.314 192.229 215.362 191.31 209.11C188.604 215.002 185.898 220.893 183.059 227.139Z" fill="#322F2F"/>
<path d="M709.139 216.997C709.139 220.658 709.242 223.827 709.095 226.985C709.023 228.526 710.165 230.857 706.914 230.905C703.872 230.95 704.431 228.889 704.417 227.154C704.378 222.158 704.426 217.161 704.38 212.165C704.372 211.263 704.764 210.216 703.425 209.112C700.58 215.364 697.804 221.471 695.02 227.574C694.279 229.199 693.869 230.949 691.354 230.938C688.867 230.927 688.428 229.274 687.693 227.594C684.908 221.226 682.077 214.878 678.178 208.607C678.178 214.56 678.283 220.516 678.108 226.463C678.062 228.056 679.553 230.781 675.971 230.872C672.461 230.961 673.58 228.327 673.553 226.618C673.447 219.792 673.427 212.961 673.573 206.136C673.606 204.624 672.281 201.971 675.348 201.887C677.904 201.816 680.821 200.608 682.323 204.636C684.987 211.777 688.294 218.678 691.559 226.202C694.886 218.819 698.303 211.99 701.019 204.893C702.377 201.345 704.759 201.616 707.332 201.83C710.831 202.122 708.876 204.942 709.037 206.519C709.374 209.815 709.139 213.17 709.139 216.997Z" fill="#2E2B2B"/>
<path d="M291.459 226.612C286.241 220.6 281.264 214.855 275.23 207.889C275.23 215.308 275.272 221.22 275.2 227.131C275.183 228.605 275.932 230.634 273.137 230.728C270.245 230.826 270.519 228.914 270.522 227.057C270.531 219.908 270.477 212.758 270.568 205.611C270.585 204.288 269.632 202.286 271.734 201.794C273.632 201.349 275.551 201.355 277.132 203.241C282.149 209.226 287.33 215.073 292.455 220.967C293.06 221.663 293.709 222.32 295.195 223.915C295.195 216.882 295.244 210.995 295.169 205.11C295.143 203.106 295.098 201.541 297.886 201.588C300.751 201.636 299.986 203.583 299.997 205.06C300.049 212.042 300.106 219.027 299.953 226.006C299.92 227.559 301.22 229.906 298.593 230.597C296.587 231.125 294.631 230.715 293.307 228.781C292.841 228.1 292.24 227.51 291.459 226.612Z" fill="#2C2828"/>
<path d="M800.136 205.179C795.007 206.46 797.854 210.147 797.517 212.629C797.222 214.805 799.717 213.947 800.984 213.978C805.805 214.098 810.632 214.003 815.456 214.049C816.498 214.059 817.907 213.582 818.022 215.475C818.143 217.464 816.874 217.516 815.449 217.512C810.625 217.499 805.782 217.773 800.98 217.438C796.395 217.119 797.418 220.192 797.332 222.651C797.245 225.137 796.822 227.631 800.956 227.352C806.419 226.983 811.926 227.282 817.413 227.269C818.774 227.265 820.17 227.066 820.229 229.086C820.291 231.179 818.838 230.933 817.507 230.933C810.187 230.929 802.864 230.818 795.547 230.988C792.761 231.053 792.216 229.89 792.252 227.442C792.362 219.957 792.362 212.468 792.251 204.983C792.216 202.651 792.895 201.735 795.349 201.78C802.334 201.91 809.323 201.799 816.31 201.851C817.485 201.86 819.24 201.216 819.328 203.357C819.435 205.92 817.392 205.122 816.1 205.142C810.944 205.222 805.786 205.176 800.136 205.179Z" fill="#333030"/>
<path d="M585.793 218.468C584.218 225.748 579.487 229.386 572.994 230.603C565.879 231.936 558.987 231.211 553.64 225.522C549.309 220.914 548.623 213.622 552.231 208.466C556.862 201.848 563.746 200.337 571.226 201.347C578.053 202.269 583.523 205.29 585.47 212.634C585.952 214.452 585.965 216.237 585.793 218.468Z" fill="#2F2C2C"/>
<path d="M108.179 224.674C102.232 213.926 106.603 204.365 118.245 201.658C123.503 200.435 128.542 201.016 133.286 203.366C138.487 205.943 141.197 210.243 141.178 216.182C141.159 222.111 138.453 226.348 133.239 228.965C125.003 233.098 115.104 231.461 108.179 224.674Z" fill="#302D2D"/>
<path d="M868.096 205.895C872.779 211.253 873.104 217.033 870.636 222.929C868.31 228.485 863.303 230.39 857.732 230.739C853.097 231.03 848.43 230.783 843.784 230.952C841.554 231.032 840.946 230.155 840.97 228.052C841.058 220.245 840.988 212.435 841.025 204.627C841.03 203.583 840.556 201.849 842.309 201.96C850.906 202.508 860.034 199.519 868.096 205.895Z" fill="#2D2929"/>
<path d="M636.174 205.112C630.23 204.297 632.276 208.406 631.865 210.926C631.281 214.502 633.749 213.985 635.88 213.978C639.879 213.963 643.886 213.829 647.873 214.048C649.377 214.131 652.157 212.652 652.214 215.505C652.281 218.883 649.214 217.193 647.597 217.291C643.447 217.543 639.261 217.559 635.108 217.33C630.205 217.059 632.158 220.614 631.925 222.799C631.688 225.022 631.183 227.462 635.133 227.216C640.611 226.876 646.125 227.108 651.624 227.148C653.025 227.159 654.912 226.688 654.75 229.142C654.615 231.175 652.981 230.765 651.732 230.771C644.403 230.804 637.073 230.733 629.746 230.833C627.594 230.862 626.807 230.137 626.83 227.97C626.913 220.139 626.896 212.307 626.837 204.476C626.824 202.691 627.177 201.731 629.274 201.757C636.604 201.85 643.936 201.774 651.268 201.807C652.34 201.812 653.747 201.49 653.873 203.269C654.025 205.434 652.407 205.088 651.151 205.097C646.319 205.132 641.487 205.112 636.174 205.112Z" fill="#2E2B2B"/>
<path d="M894.257 213.783C891.684 210.251 892.146 207.264 895.101 204.714C899.72 200.728 911.391 200.996 915.665 205.252C916.944 206.525 919.179 208.344 917.19 210.118C915.528 211.6 913.914 210.333 912.546 208.264C910.137 204.62 901.65 204.126 898.434 207.013C896.161 209.054 896.687 211.569 899.971 212.6C903.442 213.689 907.117 214.109 910.644 215.044C914.722 216.124 919.157 217.342 918.97 222.717C918.784 228.064 914.467 229.674 910.115 230.64C902.279 232.38 894.055 229.6 891.991 224.63C891.603 223.695 890.426 222.379 891.988 221.596C893.257 220.959 894.963 220.425 895.858 222.286C898.711 228.216 903.897 227.831 909.122 227.223C911.729 226.919 914.327 225.979 914.403 222.925C914.476 220.04 911.869 219.493 909.573 218.794C904.54 217.262 898.926 217.55 894.257 213.783Z" fill="#312E2E"/>
<path d="M231.302 231.02C221.635 229.489 219.074 226.598 219.006 217.56C218.976 213.561 218.965 209.561 219.017 205.563C219.041 203.733 218.212 201.479 221.66 201.554C224.842 201.623 223.975 203.713 224.002 205.344C224.079 210.008 223.927 214.678 224.084 219.339C224.283 225.242 227.081 227.596 233.558 227.622C240.294 227.65 242.95 225.609 243.253 219.704C243.5 214.884 243.384 210.045 243.396 205.213C243.4 203.353 243.077 201.537 246.013 201.574C249.157 201.614 248.327 203.756 248.352 205.408C248.417 209.739 248.434 214.073 248.359 218.404C248.214 226.758 244.529 230.573 236.244 231.02C234.749 231.1 233.245 231.032 231.302 231.02Z" fill="#2E2B2B"/>
<path d="M399.968 227.132C403.652 219.631 407.22 212.5 410.743 205.347C411.688 203.428 412.225 201.524 415.168 201.504C417.947 201.484 418.895 202.968 419.93 204.974C424.25 213.345 428.642 221.679 433.071 230.146C429.252 231.512 426.916 230.611 425.889 226.989C424.723 222.872 422.161 221.066 417.816 221.886C416.53 222.128 415.129 222.106 413.833 221.89C409.237 221.125 406.319 222.745 405.036 227.37C404.574 229.039 403.978 230.772 401.444 230.761C398.254 230.747 398.566 229.468 399.968 227.132Z" fill="#302C2C"/>
<path d="M356.363 228.86C350.429 224.7 348.284 219.296 349.698 212.609C351.134 205.819 356.045 202.8 362.369 201.583C368.709 200.363 374.668 200.973 379.444 205.903C380.389 206.879 382.181 208.31 380.668 209.56C379.501 210.523 377.314 211.075 375.929 208.872C373.365 204.795 369.326 204.161 364.994 204.628C358.633 205.312 355.501 208.268 354.665 214.148C353.813 220.14 356.251 224.934 361.114 226.832C366.899 229.09 373.225 227.726 376.154 222.853C377.754 220.191 379.804 220.212 381.345 221.396C383.056 222.709 381.041 224.338 380.115 225.546C375.573 231.475 365.965 232.867 356.363 228.86Z" fill="#312D2D"/>
<path d="M505.46 227.462C504.433 231.149 502.073 231.08 498.9 230.315C503.418 221.15 507.681 212.03 512.422 203.164C513.913 200.377 517.58 200.491 518.994 202.931C524.116 211.767 528.658 220.94 533.469 230.081C529.681 231.495 527.355 230.575 526.448 227.233C525.158 222.474 522.011 221.215 517.524 221.892C516.223 222.088 514.832 222.122 513.545 221.886C509.16 221.084 506.658 222.934 505.46 227.462Z" fill="#2F2C2C"/>
<path d="M83.6338 205.376C84.5876 206.955 87.0141 208.246 85.2069 209.669C83.907 210.693 81.8325 210.624 80.102 208.505C75.8077 203.248 66.343 203.15 61.8728 207.898C57.7288 212.3 58.1656 221.373 62.7032 225.147C68.0214 229.57 76.931 228.626 80.7614 222.781C82.2918 220.445 84.0826 220.271 85.675 221.247C87.8611 222.587 85.6839 224.163 84.9006 225.29C81.0556 230.822 71.3734 232.854 63.3671 229.977C57.0464 227.705 53.4634 221.882 53.9464 214.587C54.2679 209.732 56.4758 205.901 60.8432 203.755C68.5396 199.974 76.1703 199.64 83.6338 205.376Z" fill="#302D2D"/>
<path d="M464.268 231.195C454.76 229.473 450.04 224.69 449.808 216.53C449.593 208.936 453.659 203.783 461.363 201.887C471.061 199.5 478.416 202.189 481.773 209.432C479.518 210.318 477.816 210.716 475.815 208.26C471.745 203.262 462.344 203.224 457.884 207.738C453.693 211.979 453.984 221.131 458.432 224.981C463.659 229.505 472.781 228.737 476.532 222.975C478.178 220.447 480.219 220.097 481.758 221.433C483.486 222.932 481.276 224.68 480.233 225.94C477.29 229.49 473.266 230.876 468.061 231.036C466.802 231.191 466.223 231.271 465.357 231.43C464.866 231.454 464.669 231.433 464.268 231.195Z" fill="#2F2C2C"/>
<path d="M753.112 209.054C753.115 213.867 753.436 218.217 753.014 222.495C752.599 226.702 754.393 227.508 758.033 227.25C761.668 226.992 765.336 227.219 768.989 227.183C770.501 227.168 771.694 227.465 771.551 229.313C771.423 230.958 770.145 230.883 768.965 230.883C762.984 230.884 757.002 230.787 751.025 230.929C748.47 230.989 748.004 229.839 748.031 227.624C748.123 220.15 748.099 212.673 748.043 205.198C748.028 203.194 748.035 201.709 750.816 201.752C753.547 201.795 753.087 203.469 753.102 205.072C753.113 206.235 753.105 207.398 753.112 209.054Z" fill="#343131"/>
<path d="M328.048 222.903C328.044 225.209 328.023 227.032 328.042 228.855C328.058 230.43 327.164 230.729 325.799 230.699C324.398 230.668 323.06 230.76 323.061 228.794C323.063 220.343 323.065 211.892 323.059 203.442C323.057 201.345 324.613 201.769 325.871 201.643C327.698 201.459 328.081 202.433 328.068 204.026C328.018 210.157 328.048 216.288 328.048 222.903Z" fill="#2A2627"/>
<path d="M510.801 195.687C514.985 194.64 518.82 198.61 522.846 195.335C523.824 194.54 524.429 196.596 523.72 197.661C522.109 200.08 519.753 200.37 517.152 199.547C514.755 198.788 512.403 196.994 510.011 199.778C509.544 200.321 507.664 200.324 507.528 199.273C507.287 197.4 508.795 196.398 510.801 195.687Z" fill="#3A3737"/>
<path d="M464.066 231.392C464.064 230.979 464.275 230.994 464.38 231.009C465.327 230.553 466.238 230.489 467.585 230.78C467.997 230.989 467.961 230.968 467.949 230.95C467.841 231.703 467.419 232.549 468.606 232.932C470.228 233.455 471.899 234.137 471.365 236.282C470.911 238.107 469.216 238.669 467.572 239.017C466.611 239.22 465.581 239.374 464.621 239.249C463.281 239.075 460.984 240.185 460.817 238.252C460.616 235.93 463.049 237.275 464.271 236.852C465.166 236.542 466.065 236.246 466.813 235.993C467.198 233.467 462.377 234.989 464.066 231.392Z" fill="#312D2D"/>
<path d="M512.99 155.819C487.174 155.814 461.857 155.743 436.54 155.898C432.963 155.92 431.7 155.263 431.731 151.337C431.891 131.521 431.792 111.701 431.567 91.8853C431.527 88.3058 432.236 87.0477 436.162 87.0734C464.477 87.2588 492.794 87.1192 521.11 87.193C538.101 87.2373 545.328 94.6253 545.354 111.675C545.365 119.17 545.493 126.669 545.319 134.16C544.994 148.147 537.947 155.236 523.98 155.786C520.487 155.924 516.985 155.818 512.99 155.819Z" fill="#FDFDFD"/>
<path d="M691.951 155.818C671.152 155.813 650.845 155.843 630.538 155.816C613.924 155.794 606.923 148.791 606.831 132.113C606.784 123.472 606.499 114.812 606.951 106.193C607.513 95.4812 613.282 89.4716 623.793 87.8256C626.572 87.3904 629.416 87.2021 632.232 87.196C653.205 87.1507 674.178 87.1481 695.151 87.2213C698.13 87.2317 701.141 87.5225 704.078 88.0292C713.316 89.6233 719.312 95.8737 719.971 105.257C720.74 116.204 720.738 127.206 719.963 138.151C719.312 147.34 713.47 153.236 704.376 155.118C700.408 155.939 696.429 155.755 691.951 155.818Z" fill="#FFFDFD"/>
<path d="M555.972 220.707C554.376 213.841 555.734 209.351 560.007 206.635C564.657 203.678 572.395 203.889 576.522 207.084C580.301 210.009 581.7 215.182 580.118 220.144C578.53 225.124 574.578 227.095 569.929 227.655C564.08 228.359 559.048 226.742 555.972 220.707Z" fill="#FAFAFA"/>
<path d="M134.158 222.923C129.758 227.746 124.625 228.716 118.912 227.153C113.262 225.607 110.449 221.603 110.67 215.728C110.899 209.655 113.796 206.146 119.712 204.974C125.062 203.913 130.186 204.451 133.737 209.027C136.986 213.214 136.841 217.952 134.158 222.923Z" fill="#FBFBFB"/>
<path d="M856.363 205.259C863.889 206.578 866.604 209.29 866.892 215.38C867.251 222.973 863.763 226.82 856.153 227.226C846.046 227.765 846.046 227.765 846.046 217.84C846.046 216.843 846.046 215.845 846.046 214.848C846.046 204.959 846.046 204.959 856.363 205.259Z" fill="#FBFBFB"/>
<path d="M412.47 211.587C413.471 209.455 414.275 207.646 415.324 205.29C416.858 208.469 418.165 211.18 419.473 213.891C421.821 218.758 421.821 218.758 416.333 218.773C409.05 218.792 409.05 218.792 412.47 211.587Z" fill="#EEEDEE"/>
<path d="M520.294 214.732C522.146 217.673 522.234 219.217 518.334 218.822C515.717 218.557 513.052 218.772 509.696 218.772C511.759 214.129 513.614 209.956 515.681 205.307C517.245 208.515 518.679 211.457 520.294 214.732Z" fill="#EEEEEE"/>
<path d="M467.801 230.714C467.123 230.998 466.25 231.006 464.93 231.02C465.383 230.072 466.413 229.824 467.801 230.714Z" fill="#7C7A7A"/>
</g>
<defs>
<clipPath id="clip0_12_192">
<rect width="970" height="285" fill="white"/>
</clipPath>
</defs>
</svg>
